# xmcd
#
# Track frame offsets:
# 150
# 18629
# 35313
# 49134
# 67048
# 79885
# 90868
# 105915
# 118872
# 135093
# 148878
# 163452
#
# Disc length: 2392 seconds
#
#
# Revision: 0
# Processed by: cddbd v1.5.2PL0 Copyright (c) Steve Scherf et al.
# Submitted via: FreeRIP 2.945 
#
DISCID=9e09560c
DTITLE=Segundo Festival de Conjuntos - 
DYEAR=1900
DGENRE=
TTITLE0=Bamo Farreá - Grupo Rodeio
TTITLE1=Me Tapo de Nojo - Lobisomen
TTITLE2=Galpão do Engenho - Odilon Ramos e Grupo Pampa e Guitarra
TTITLE3=Orgulho Gaúcho - Quero-Quero
TTITLE4=Ela é Maleva - Tchê Barbaridade
TTITLE5=Gaúcha MOrena - Os Oliveiras
TTITLE6=Estrada, Mato e Rio
TTITLE7=Puçuca - Os Tahãs
TTITLE8=Herança Morta - Porca Véia e Grupo Candeêiro
TTITLE9=Bugio Gavola - Os Livres
TTITLE10=Um Novo Xote - Gaudérios do Vale
TTITLE11=Rio de Lembranças - Os Ruanos
EXTD=
EXTT0=
EXTT1=
EXTT2=
EXTT3=
EXTT4=
EXTT5=
EXTT6=
EXTT7=
EXTT8=
EXTT9=
EXTT10=
EXTT11=
PLAYORDER=
